<svg width="29" height="30" viewBox="0 0 29 30" fill="none" xmlns="http://www.w3.org/2000/svg">
<path d="M12.0833 26.4792C12.7507 26.4792 13.2917 25.9382 13.2917 25.2708C13.2917 24.6035 12.7507 24.0625 12.0833 24.0625C11.416 24.0625 10.875 24.6035 10.875 25.2708C10.875 25.9382 11.416 26.4792 12.0833 26.4792Z" stroke="#0D1112" stroke-width="1.20833" stroke-linecap="round" stroke-linejoin="round"/>
<path d="M21.75 26.4792C22.4173 26.4792 22.9583 25.9382 22.9583 25.2708C22.9583 24.6035 22.4173 24.0625 21.75 24.0625C21.0826 24.0625 20.5416 24.6035 20.5416 25.2708C20.5416 25.9382 21.0826 26.4792 21.75 26.4792Z" stroke="#0D1112" stroke-width="1.20833" stroke-linecap="round" stroke-linejoin="round"/>
<path d="M3.02087 3.52084H6.64587L9.90837 18.5042C10.0214 19.0583 10.3251 19.5552 10.7666 19.9084C11.2082 20.2617 11.7597 20.4489 12.325 20.4375H21.6292C22.1946 20.4489 22.746 20.2617 23.1876 19.9084C23.6292 19.5552 23.9329 19.0583 24.0459 18.5042L25.9792 8.35418H8.57921" stroke="#0D1112" stroke-width="1.20833" stroke-linecap="round" stroke-linejoin="round"/>
</svg>
